<?xml version="1.0" standalone="no"?>
<!DOCTYPE svg PUBLIC "-//W3C//DTD SVG 20010904//EN"
 "http://www.w3.org/TR/2001/REC-SVG-20010904/DTD/svg10.dtd">
<svg version="1.0" xmlns="http://www.w3.org/2000/svg"
 width="2000.000000pt" height="2000.000000pt" viewBox="0 0 2000.000000 2000.000000"
 preserveAspectRatio="xMidYMid meet">
<metadata>
Created by potrace 1.14, written by Peter Selinger 2001-2017
</metadata>
<g transform="translate(0.000000,2000.000000) scale(0.100000,-0.100000)"
fill="#000000" stroke="none">
<path d="M7375 16893 c-60 -13 -131 -28 -157 -34 -26 -6 -62 -13 -80 -15 -46
-7 -169 -44 -193 -58 -11 -7 -48 -20 -82 -31 -35 -10 -63 -21 -63 -25 0 -4
-21 -13 -47 -20 -27 -7 -53 -17 -58 -21 -6 -4 -49 -23 -96 -42 -48 -19 -106
-45 -130 -58 -24 -12 -53 -27 -64 -33 -85 -43 -196 -111 -270 -164 -22 -16
-56 -37 -75 -47 -35 -18 -91 -55 -100 -66 -3 -3 -16 -12 -29 -19 -14 -7 -30
-17 -35 -21 -6 -5 -60 -46 -121 -90 -60 -45 -112 -84 -115 -88 -12 -14 -131
-101 -139 -101 -5 0 -11 -3 -13 -7 -5 -13 -191 -168 -235 -198 -24 -15 -43
-32 -43 -36 0 -5 -7 -9 -15 -9 -7 0 -18 -6 -22 -13 -4 -6 -34 -32 -65 -57 -31
-25 -60 -53 -63 -62 -3 -9 -25 -28 -48 -42 -23 -14 -80 -62 -127 -107 -47 -45
-96 -88 -110 -97 -42 -27 -87 -70 -265 -248 -94 -94 -183 -179 -198 -189 -15
-10 -25 -20 -23 -23 3 -2 -21 -31 -54 -63 -33 -32 -60 -62 -60 -67 0 -9 -31
-36 -61 -52 -14 -8 -18 -15 -11 -19 7 -4 -3 -19 -28 -40 -22 -18 -40 -40 -40
-50 0 -9 -9 -21 -21 -26 -12 -6 -28 -23 -38 -40 -9 -16 -19 -31 -23 -33 -5 -2
-8 -9 -8 -14 0 -12 -59 -68 -71 -68 -4 0 -10 -11 -13 -25 -3 -13 -31 -53 -61
-88 -30 -36 -66 -90 -79 -122 -14 -31 -40 -75 -58 -97 -18 -23 -33 -47 -34
-55 -1 -7 -15 -34 -31 -59 -15 -25 -35 -58 -43 -72 -8 -15 -17 -29 -20 -32 -3
-3 -7 -14 -8 -25 -2 -11 -12 -29 -21 -40 -20 -22 -32 -50 -36 -81 -2 -11 -17
-50 -34 -86 -17 -36 -31 -74 -31 -85 0 -11 -11 -48 -26 -82 -14 -35 -23 -66
-20 -69 3 -3 1 -11 -5 -19 -6 -7 -9 -13 -6 -13 3 0 1 -17 -4 -37 -4 -21 -11
-54 -14 -73 -3 -19 -9 -51 -13 -70 -12 -55 -7 -232 7 -258 6 -12 13 -47 14
-78 2 -31 9 -59 16 -63 6 -4 13 -19 15 -32 1 -14 6 -30 10 -37 4 -7 4 -16 1
-22 -3 -5 -1 -10 4 -10 6 0 11 -4 11 -10 0 -20 70 -126 108 -165 12 -12 22
-28 22 -34 0 -7 5 -9 10 -6 6 3 10 2 10 -3 0 -18 49 -62 63 -56 8 3 17 -2 20
-10 4 -9 13 -16 21 -16 7 0 16 -9 19 -21 3 -11 11 -19 19 -18 34 4 50 -2 44
-17 -3 -8 -2 -12 4 -9 5 3 19 -6 32 -20 12 -14 27 -25 33 -25 6 0 17 -8 24
-18 9 -12 21 -17 37 -14 17 3 24 0 24 -12 0 -9 11 -21 25 -28 13 -6 22 -14 20
-18 -2 -4 6 -6 18 -5 12 1 25 -2 28 -7 3 -5 16 -11 30 -13 13 -3 30 -12 36
-22 7 -9 21 -17 32 -18 23 -2 73 -40 63 -49 -3 -4 6 -2 21 3 22 9 32 8 43 -4
9 -8 20 -15 25 -15 6 0 7 -6 3 -12 -6 -10 -4 -10 8 0 13 10 17 10 22 -3 3 -9
10 -14 14 -11 5 3 18 -2 28 -12 27 -23 68 -46 59 -33 -3 6 -4 11 0 11 3 0 10
-10 15 -22 7 -19 9 -19 9 -5 1 10 5 16 11 12 5 -3 7 -12 3 -20 -3 -8 0 -15 6
-15 6 0 11 4 11 9 0 5 7 11 14 14 11 4 13 1 9 -10 -4 -11 -3 -14 6 -9 16 10
61 -1 61 -15 0 -6 -4 -8 -9 -4 -5 3 -12 2 -15 -3 -3 -5 12 -8 32 -8 31 1 37
-2 35 -19 -1 -20 -1 -20 13 -1 8 12 14 15 14 7 0 -9 9 -12 24 -9 18 4 27 -1
34 -16 6 -12 11 -15 11 -7 1 11 4 11 16 1 8 -7 15 -10 15 -6 0 4 14 0 30 -9
17 -9 30 -13 30 -9 0 3 11 -1 25 -10 14 -9 25 -14 25 -10 0 4 6 2 13 -4 6 -5
23 -10 37 -10 33 1 113 -36 103 -46 -5 -5 2 -3 14 3 19 9 28 8 50 -6 15 -10
29 -16 30 -15 2 2 21 1 44 -3 36 -6 38 -8 22 -20 -16 -12 -13 -13 20 -8 21 2
46 1 55 -3 26 -11 45 -15 65 -15 10 0 31 -5 45 -11 15 -6 33 -12 41 -14 51
-10 60 -15 54 -30 -5 -14 -3 -15 15 -5 20 11 27 10 67 -5 11 -4 29 -6 39 -5
14 2 17 -2 12 -15 -6 -17 -6 -17 11 -2 16 14 21 15 43 3 14 -8 35 -14 48 -15
12 0 22 -4 22 -8 0 -5 14 -7 30 -6 17 1 30 -2 30 -6 0 -4 9 -6 20 -3 12 3 20
0 20 -6 0 -7 5 -9 11 -6 5 4 22 2 37 -3 58 -22 68 -25 92 -29 14 -3 38 -5 53
-4 15 0 30 -6 33 -13 3 -8 16 -11 35 -8 21 3 28 1 26 -9 -2 -8 -2 -11 0 -6 6
10 33 9 33 -1 0 -5 10 -8 23 -8 12 1 21 -4 20 -10 -1 -7 10 -10 29 -8 18 2 35
-1 40 -8 6 -10 8 -10 8 0 0 6 5 12 11 12 5 0 8 -4 5 -8 -2 -4 -1 -14 5 -22 5
-8 9 -10 9 -4 0 14 36 25 56 17 8 -3 11 -9 8 -15 -4 -5 4 -8 17 -6 16 2 23 -2
21 -10 -2 -9 3 -10 15 -3 12 6 31 4 58 -6 22 -8 50 -14 62 -14 13 0 21 -5 19
-12 -1 -6 -1 -9 1 -4 8 13 30 8 57 -14 14 -11 26 -16 26 -10 0 12 41 11 58 -3
8 -5 28 -10 45 -10 25 -1 32 -5 30 -20 -1 -13 2 -15 10 -7 18 18 43 13 55 -11
6 -13 11 -17 11 -10 1 6 8 12 17 12 8 0 13 -4 10 -8 -3 -5 9 -6 26 -4 27 4 30
2 24 -14 -7 -17 -6 -17 14 1 11 10 20 14 20 8 0 -5 27 -17 60 -26 33 -10 69
-26 79 -36 14 -14 21 -16 25 -8 3 9 8 8 15 -3 6 -8 11 -10 11 -5 0 6 6 3 13
-5 7 -9 28 -16 47 -16 63 -2 91 -8 86 -20 -3 -7 5 -9 20 -6 13 2 32 1 41 -4
10 -4 25 -8 33 -9 8 0 34 -11 58 -23 23 -12 42 -19 42 -15 0 5 5 1 10 -7 5 -9
25 -17 46 -18 44 -3 57 -10 48 -24 -4 -7 -2 -8 4 -4 6 4 22 1 34 -6 13 -7 29
-11 36 -10 6 2 12 -6 12 -17 0 -15 5 -18 22 -13 12 3 19 1 15 -4 -3 -6 6 -9
21 -9 15 1 38 -2 52 -6 24 -7 24 -7 3 -8 -13 -1 -23 -5 -23 -11 0 -5 7 -7 15
-4 26 10 85 -5 79 -21 -4 -9 0 -12 14 -8 11 2 23 0 26 -6 4 -6 16 -11 27 -11
11 0 18 -4 15 -9 -4 -5 3 -7 14 -4 17 4 19 2 13 -13 -6 -16 -4 -17 9 -6 17 14
49 5 101 -31 15 -10 27 -15 27 -10 0 4 5 1 10 -7 8 -12 10 -12 10 -1 0 12 3
11 18 -1 9 -9 28 -19 42 -23 14 -4 39 -19 57 -32 17 -14 34 -24 37 -24 23 3
29 0 16 -9 -11 -7 -7 -8 14 -6 26 3 88 -22 110 -44 5 -5 18 -10 28 -10 10 0
18 -4 18 -10 0 -5 3 -9 8 -9 21 4 72 -15 72 -28 0 -8 4 -11 10 -8 11 7 50 -12
65 -31 6 -7 21 -14 35 -16 14 -2 24 -9 23 -16 -2 -6 0 -11 5 -10 13 4 52 -13
48 -21 -3 -4 3 -7 12 -8 35 -3 76 -16 91 -30 9 -7 21 -14 26 -15 6 -1 16 -8
23 -15 8 -7 17 -11 22 -8 5 3 11 1 15 -5 4 -6 11 -8 16 -5 5 4 9 2 9 -3 0 -6
27 -23 60 -38 33 -15 60 -31 60 -35 0 -4 14 -12 30 -18 17 -5 30 -15 30 -20 0
-6 9 -11 20 -11 11 0 20 -4 20 -8 0 -4 20 -16 45 -26 24 -10 42 -22 40 -27 -3
-4 4 -10 15 -14 11 -3 20 -11 20 -17 0 -6 8 -8 18 -6 12 3 24 -2 31 -13 6 -11
18 -19 26 -19 8 0 15 -4 15 -8 0 -12 56 -42 64 -35 4 4 9 -3 12 -15 4 -13 20
-26 40 -34 19 -7 34 -16 34 -20 0 -12 72 -83 82 -80 4 1 8 -2 8 -8 0 -17 34
-50 52 -50 10 0 18 -5 18 -11 0 -5 4 -8 9 -4 6 3 15 -5 22 -17 7 -13 20 -30
31 -39 10 -9 18 -21 18 -28 0 -6 5 -11 11 -11 5 0 8 -4 4 -9 -3 -5 0 -13 6
-17 8 -4 9 -3 5 4 -4 7 -2 12 3 12 10 0 16 -21 12 -43 -1 -4 6 -10 14 -13 8
-4 15 -12 15 -18 0 -7 16 -21 35 -32 24 -13 35 -26 35 -41 0 -16 4 -21 15 -17
8 4 15 2 16 -2 4 -43 13 -70 24 -77 8 -4 17 -23 21 -42 3 -20 12 -39 19 -43 8
-4 22 -40 32 -80 10 -39 22 -71 26 -70 5 2 18 -15 29 -37 21 -41 33 -155 17
-155 -5 0 -9 -9 -9 -20 0 -11 3 -20 8 -20 10 0 6 -93 -5 -116 -6 -10 -8 -25
-5 -33 3 -8 0 -11 -7 -7 -17 11 -13 -20 4 -34 21 -17 19 -35 -7 -54 -13 -9
-17 -14 -10 -11 16 8 15 5 -4 -33 -8 -18 -14 -44 -12 -59 2 -21 -4 -34 -25
-52 -15 -13 -26 -30 -23 -37 3 -8 1 -14 -4 -14 -5 0 -7 -11 -4 -24 3 -16 -4
-34 -21 -54 -13 -16 -21 -32 -17 -36 4 -4 -1 -14 -11 -21 -10 -7 -17 -19 -16
-27 1 -7 -4 -26 -11 -43 -7 -16 -12 -34 -11 -39 4 -18 -21 -74 -35 -80 -8 -3
-12 -10 -9 -16 3 -5 1 -10 -4 -10 -6 0 -11 -6 -11 -13 0 -8 -13 -33 -30 -55
-16 -23 -30 -46 -30 -51 0 -6 -6 -14 -13 -18 -7 -4 -25 -27 -40 -51 -15 -23
-45 -59 -67 -80 -22 -20 -40 -41 -40 -45 0 -5 -13 -19 -28 -32 -16 -13 -34
-41 -40 -62 -8 -26 -38 -65 -92 -120 -44 -44 -80 -83 -80 -86 0 -3 -14 -20
-31 -38 -18 -19 -38 -48 -45 -65 -7 -18 -46 -60 -86 -94 -40 -35 -76 -71 -80
-81 -4 -11 -12 -19 -18 -19 -5 0 -10 -6 -10 -14 0 -7 -25 -33 -55 -56 -30 -23
-55 -46 -55 -50 0 -7 -71 -84 -172 -187 -83 -85 -189 -183 -233 -215 -27 -20
-69 -57 -92 -81 -23 -25 -77 -75 -121 -111 -44 -37 -82 -70 -84 -74 -2 -4 -28
-26 -59 -49 -31 -24 -72 -60 -91 -80 -58 -62 -228 -207 -244 -209 -15 -2 -26
-11 -88 -69 -75 -69 -111 -99 -114 -96 -3 2 -19 -8 -38 -22 -18 -15 -36 -27
-40 -27 -3 0 -29 -19 -57 -42 -28 -24 -53 -43 -56 -43 -10 0 -158 -113 -166
-125 -5 -8 -10 -9 -14 -2 -4 6 -34 -16 -71 -53 -36 -35 -73 -64 -82 -65 -9 0
-23 -7 -32 -15 -8 -9 -19 -14 -24 -13 -6 2 -35 -19 -66 -45 -31 -27 -62 -50
-69 -51 -17 -2 -127 -88 -127 -99 0 -4 -4 -6 -9 -3 -4 3 -16 -3 -26 -14 -10
-11 -26 -18 -35 -15 -10 3 -27 -7 -45 -25 -16 -16 -37 -30 -47 -30 -10 0 -31
-12 -47 -26 -16 -14 -31 -24 -34 -22 -2 1 -21 -12 -41 -30 -21 -18 -50 -35
-66 -38 -15 -4 -43 -21 -61 -40 -18 -18 -36 -31 -41 -28 -4 3 -8 1 -8 -4 0 -5
-18 -15 -40 -22 -22 -7 -47 -21 -56 -31 -9 -10 -20 -17 -24 -14 -4 2 -20 -9
-35 -25 -16 -17 -34 -30 -41 -30 -6 0 -17 -7 -24 -15 -7 -8 -16 -13 -20 -10
-4 2 -22 -9 -40 -25 -19 -17 -39 -30 -46 -30 -6 0 -17 -7 -24 -15 -7 -9 -18
-14 -25 -11 -6 2 -26 -9 -44 -26 -18 -17 -35 -28 -38 -24 -3 3 -20 -6 -38 -19
-17 -14 -38 -25 -45 -25 -7 0 -31 -15 -54 -33 -43 -36 -87 -62 -97 -60 -3 1
-21 -14 -39 -32 -19 -19 -40 -35 -47 -35 -7 0 -13 -4 -13 -10 0 -5 -6 -10 -14
-10 -7 0 -25 -9 -40 -21 -14 -11 -26 -18 -26 -14 0 3 -13 -3 -29 -14 -16 -12
-35 -21 -41 -21 -7 0 -18 -6 -24 -14 -14 -18 -103 -66 -121 -66 -8 0 -15 -4
-15 -8 0 -5 -10 -14 -22 -21 -13 -6 -36 -20 -53 -31 -16 -11 -45 -27 -62 -37
-18 -9 -33 -20 -33 -25 0 -4 -6 -8 -13 -8 -18 0 -75 -28 -82 -41 -4 -5 -11 -7
-16 -4 -5 4 -9 3 -9 -2 0 -4 -13 -14 -29 -21 -16 -7 -44 -27 -62 -45 -19 -18
-36 -33 -39 -34 -20 -1 -58 -18 -72 -31 -10 -8 -18 -12 -18 -7 0 4 -15 -4 -34
-19 -19 -14 -39 -26 -44 -26 -5 0 -17 -9 -27 -20 -10 -11 -24 -20 -32 -20 -7
0 -16 -7 -19 -15 -4 -8 -17 -15 -30 -15 -26 0 -90 -36 -113 -64 -7 -8 -17 -14
-21 -11 -4 3 -10 -2 -14 -10 -3 -8 -15 -15 -26 -15 -11 0 -20 -4 -20 -9 0 -5
-8 -11 -17 -15 -10 -3 -31 -14 -48 -25 -16 -11 -38 -20 -47 -20 -10 -1 -18 -6
-18 -11 0 -11 -96 -73 -118 -76 -8 -2 -19 -10 -26 -20 -7 -9 -18 -14 -23 -11
-6 4 -16 0 -23 -8 -7 -8 -20 -15 -30 -15 -10 0 -20 -7 -24 -15 -3 -8 -14 -15
-24 -15 -11 0 -25 -7 -32 -15 -7 -8 -16 -12 -21 -9 -5 3 -9 1 -9 -4 0 -5 -18
-17 -40 -27 -22 -10 -47 -27 -57 -37 -17 -19 -81 -52 -95 -50 -4 1 -12 -7 -18
-18 -6 -11 -15 -18 -20 -15 -5 3 -11 1 -15 -5 -3 -5 -31 -22 -61 -36 -30 -14
-54 -30 -54 -35 0 -5 -12 -12 -27 -15 -16 -4 -45 -18 -65 -31 -21 -12 -44 -23
-53 -23 -8 0 -15 -4 -15 -10 0 -5 -9 -10 -19 -10 -11 0 -23 -5 -26 -10 -9 -15
-82 -50 -89 -43 -3 4 -6 1 -6 -5 0 -7 -6 -12 -13 -12 -24 0 -74 -82 -81 -133
l-7 -47 36 0 c32 0 36 -3 33 -22 -2 -14 -16 -29 -36 -38 l-33 -16 23 -22 c15
-14 31 -19 45 -16 11 3 24 1 27 -5 4 -6 25 -11 47 -11 21 0 39 -4 39 -10 0 -5
5 -10 10 -10 6 0 10 6 10 14 0 8 12 14 33 15 144 6 190 12 229 31 24 11 60 23
80 26 20 4 39 12 42 19 3 9 29 13 85 13 60 0 85 4 97 16 8 9 27 19 42 22 54
11 95 28 252 101 47 22 92 43 100 47 8 3 29 15 45 25 17 11 38 20 48 20 9 1
17 4 17 9 0 10 58 42 76 42 7 0 43 16 80 35 36 19 71 35 78 35 7 0 22 9 34 20
12 11 28 20 36 20 8 0 18 5 21 10 3 6 15 10 25 10 10 0 20 4 22 8 3 10 46 34
91 53 15 6 27 15 27 20 0 5 9 9 19 9 11 0 21 5 23 12 2 6 15 13 29 15 13 2 29
10 35 18 6 8 21 15 33 15 11 0 31 11 43 25 12 14 32 25 45 25 23 0 63 23 110
64 12 10 29 16 37 13 9 -4 16 -2 16 3 0 6 9 10 21 10 11 0 18 4 15 9 -6 9 22
26 37 23 4 -1 7 3 7 8 0 6 7 10 15 10 8 0 15 5 15 10 0 6 6 10 13 9 13 -2 49
11 57 21 9 11 77 40 94 40 9 0 13 6 10 14 -4 10 3 16 23 18 16 2 27 8 25 16
-1 6 6 12 16 12 10 0 28 7 40 16 13 9 30 13 38 10 8 -3 13 -2 10 3 -7 10 22
25 42 22 6 -1 12 3 12 9 0 5 9 10 21 10 11 0 18 4 15 8 -3 5 10 15 29 22 19 8
35 20 35 27 0 7 11 13 25 13 14 0 25 5 25 10 0 6 18 18 40 27 22 10 40 21 40
25 0 5 9 8 20 8 11 0 20 4 20 9 0 12 45 40 72 44 12 2 24 9 26 15 2 7 8 12 13
12 5 0 18 9 29 20 11 11 29 20 39 20 10 0 21 6 24 14 4 9 14 12 26 9 12 -3 21
-1 21 6 0 6 7 11 15 11 8 0 15 5 15 11 0 6 6 9 14 6 8 -3 17 1 20 9 3 8 12 14
20 14 8 0 32 11 52 25 21 14 44 23 51 21 7 -3 13 1 13 9 0 13 14 20 23 13 3
-3 69 35 91 52 10 8 21 14 25 14 9 -2 34 6 51 17 8 5 39 21 68 36 28 15 52 34
52 41 0 9 7 13 20 9 13 -3 18 -1 13 6 -4 6 0 8 9 5 8 -4 21 2 28 12 8 11 17
17 22 14 4 -3 8 0 8 6 0 7 7 10 15 6 9 -3 15 1 15 11 0 13 3 13 16 3 12 -11
15 -11 12 1 -2 8 4 13 14 13 10 -1 16 3 15 9 -1 6 3 11 8 12 6 0 32 11 59 23
27 12 52 22 56 22 4 0 11 7 14 16 3 8 10 13 16 9 9 -6 63 18 87 39 36 32 45
37 58 33 7 -3 16 1 19 9 3 8 13 14 23 14 10 0 29 9 43 20 14 11 31 20 38 20 6
0 12 5 12 11 0 6 6 9 12 7 12 -4 20 1 53 30 8 7 15 10 15 5 0 -4 5 -1 10 7 9
13 11 13 20 0 8 -13 10 -12 10 3 0 17 38 39 53 30 4 -2 7 0 7 4 0 9 59 47 75
48 6 1 9 6 7 13 -1 7 4 12 12 12 8 0 22 7 30 16 9 8 21 12 27 8 8 -5 9 -3 4 6
-5 9 -2 10 14 5 11 -3 21 -3 21 2 0 4 15 14 33 22 17 8 40 21 50 29 9 8 17 11
17 6 0 -5 5 -1 11 9 5 9 17 17 25 17 18 0 77 29 85 42 3 5 15 10 27 11 11 0
19 4 17 7 -2 4 5 14 16 23 10 9 19 14 19 11 0 -4 6 -1 14 5 8 7 49 29 91 50
42 21 76 42 75 47 -1 5 14 13 34 17 20 5 36 12 36 17 0 4 14 13 30 20 17 7 30
16 30 21 0 4 10 11 23 15 12 4 24 10 27 14 3 4 21 16 40 26 20 11 35 24 35 29
0 6 15 11 33 13 23 2 32 8 30 19 -2 10 7 19 24 24 15 4 35 15 44 24 9 9 23 14
31 10 10 -3 13 -1 10 9 -7 17 26 28 42 15 8 -6 8 -5 1 3 -11 13 -14 35 -4 25
4 -4 14 1 23 11 9 10 29 17 44 17 18 -1 26 3 23 11 -6 14 51 37 68 27 7 -4 7
-2 -1 7 -15 16 10 45 32 36 8 -3 15 -1 15 4 0 6 6 10 14 10 7 0 16 10 19 21 4
16 11 20 26 16 12 -3 24 0 28 5 3 7 1 8 -5 4 -19 -11 -14 5 6 20 9 7 25 14 35
14 9 0 17 5 17 10 0 6 7 10 15 10 9 0 18 6 21 14 3 8 12 12 20 9 9 -3 14 0 12
7 -2 7 21 25 50 39 29 15 50 30 47 33 -4 3 7 9 24 13 17 4 31 11 31 16 0 5 8
9 17 9 9 0 13 3 10 7 -9 8 42 35 54 27 5 -3 6 2 3 10 -6 16 28 31 48 21 7 -4
5 0 -4 7 -15 13 -15 15 5 28 51 33 89 50 98 45 5 -4 8 -1 7 6 -2 7 7 18 20 24
12 5 22 15 22 22 0 12 31 32 82 54 16 6 25 15 22 21 -3 5 3 12 15 15 12 3 21
10 21 15 0 5 4 6 10 3 5 -3 15 3 22 15 7 11 17 20 22 20 5 0 24 11 41 25 18
13 36 21 40 17 5 -4 5 -2 2 4 -6 11 19 29 36 26 4 -1 7 5 7 13 0 8 15 18 33
23 17 5 31 14 30 20 -2 7 8 14 21 18 16 4 23 11 19 20 -3 9 2 14 16 14 12 0
21 4 21 9 0 5 16 16 35 25 19 9 35 21 35 26 0 10 40 25 54 21 5 -1 4 5 -4 13
-11 14 -9 16 9 16 12 0 20 4 16 9 -3 5 5 11 17 13 13 2 22 8 21 14 -2 10 89
67 98 61 2 -1 3 0 2 2 -6 9 21 31 37 31 9 0 22 11 28 25 12 26 65 59 77 47 5
-4 5 -1 1 6 -4 7 -1 12 8 12 8 0 20 9 26 20 6 11 29 28 51 36 21 9 47 29 56
44 9 16 28 31 41 35 24 6 142 120 142 137 0 5 4 6 10 3 11 -7 70 25 70 37 0 4
14 15 32 24 17 9 59 44 93 78 33 34 69 65 78 69 10 4 21 17 26 30 11 27 27 42
61 52 25 8 70 49 70 65 0 4 13 13 30 18 21 8 28 16 24 26 -3 9 -2 16 3 16 6 0
15 11 21 25 6 14 18 25 25 25 7 0 19 16 26 35 7 19 18 35 24 35 7 0 28 20 47
45 19 24 41 44 48 45 6 0 13 7 13 15 1 8 2 20 3 27 0 6 14 19 31 28 16 9 30
23 31 31 1 23 15 49 28 49 12 0 56 63 56 80 0 9 14 13 25 8 2 -2 11 6 19 17
11 15 11 22 3 27 -8 5 -7 8 3 8 16 0 43 57 34 71 -3 5 1 9 9 9 12 0 28 20 31
40 1 3 11 15 23 27 13 13 20 29 17 36 -3 8 1 17 9 20 9 3 18 19 22 35 3 17 13
33 22 36 8 4 13 13 9 21 -3 8 0 15 7 15 9 0 9 2 0 8 -8 5 -6 18 8 46 21 43 24
76 10 92 -10 10 3 54 16 54 5 0 10 11 11 26 1 17 -2 23 -10 18 -8 -5 -9 -2 -4
12 5 10 8 26 7 34 -1 8 -3 40 -4 70 -1 40 -6 54 -15 52 -8 -1 -11 2 -6 9 10
17 12 109 1 109 -5 0 -6 7 -3 16 4 12 2 15 -9 10 -12 -4 -13 -2 -5 13 11 21
-11 76 -25 63 -5 -4 -5 1 -1 12 3 10 1 25 -5 32 -7 9 -7 14 -1 14 5 0 0 20
-11 45 -12 25 -27 45 -35 45 -7 0 -10 5 -7 10 4 6 0 21 -8 34 -12 17 -13 26
-4 35 8 8 8 11 0 11 -20 0 -78 64 -75 83 2 9 -1 17 -7 17 -6 0 -11 6 -11 14 0
7 -11 25 -25 40 -14 15 -25 30 -26 34 0 4 -2 15 -4 24 -2 12 2 15 13 11 10 -3
1 9 -20 28 -62 58 -83 74 -92 71 -5 -2 -4 3 2 11 10 11 9 17 -3 27 -8 7 -15 9
-15 6 0 -4 -6 -1 -14 6 -10 9 -11 15 -2 20 8 6 7 8 -2 8 -7 0 -18 4 -25 10
-61 50 -116 88 -121 83 -3 -4 -6 -1 -6 5 0 7 -7 12 -15 12 -8 0 -14 3 -13 8 4
15 -14 52 -23 47 -5 -4 -9 -1 -9 4 0 6 -9 11 -20 11 -11 0 -20 7 -20 15 0 9
-7 18 -15 21 -8 4 -12 10 -9 15 3 5 -7 9 -22 9 -15 0 -24 3 -21 7 9 9 -12 33
-30 33 -8 0 -28 13 -46 30 -18 16 -35 30 -39 30 -4 0 -13 6 -20 13 -7 6 -25
18 -40 26 -15 8 -26 17 -24 20 8 12 -23 43 -37 38 -7 -3 -31 10 -52 29 -58 50
-58 49 -85 46 -14 -2 -22 -1 -18 4 13 12 -31 37 -45 25 -8 -6 -18 -6 -27 -1
-10 6 -11 10 -3 10 7 0 10 7 7 15 -4 8 -12 15 -20 15 -8 0 -14 4 -14 10 0 5
-15 16 -34 24 -18 8 -37 19 -40 25 -4 5 -13 8 -21 5 -7 -3 -18 4 -24 15 -6 11
-29 26 -51 32 -22 7 -40 16 -40 21 0 5 5 6 10 3 6 -3 10 -1 10 5 0 7 -8 9 -20
5 -11 -4 -20 -2 -20 4 0 5 -16 13 -35 17 -19 3 -39 12 -46 20 -6 8 -15 11 -20
8 -5 -3 -9 0 -9 5 0 6 -7 11 -16 11 -8 0 -12 5 -9 10 3 6 -5 10 -19 10 -14 0
-27 4 -30 9 -3 4 -18 7 -33 5 -16 -2 -20 -1 -10 2 20 6 22 20 5 30 -6 4 -8 3
-5 -3 4 -6 -6 -10 -23 -11 -16 0 -29 2 -29 6 3 22 -3 32 -21 32 -11 0 -29 9
-40 20 -12 12 -26 18 -33 13 -24 -15 -38 -11 -59 18 -14 19 -31 29 -48 29 -14
0 -42 11 -62 25 -20 14 -44 25 -53 25 -9 0 -14 4 -11 9 3 5 -6 12 -22 16 -15
3 -34 12 -42 20 -8 7 -25 16 -38 20 -12 3 -20 10 -17 15 3 4 -14 6 -36 4 -36
-4 -41 -2 -37 14 4 16 -1 18 -34 16 -31 -2 -38 1 -34 13 3 8 2 11 -3 8 -11 -6
-61 15 -61 26 0 5 -7 6 -15 3 -8 -3 -27 3 -43 15 -16 11 -33 17 -37 13 -5 -4
-5 1 -2 11 4 11 3 16 -3 12 -6 -3 -16 -3 -22 2 -7 4 -24 9 -38 11 -14 1 -29 9
-35 16 -5 7 -22 16 -37 19 -15 4 -33 14 -41 21 -8 9 -24 12 -36 9 -11 -3 -28
0 -37 8 -8 7 -29 14 -47 16 -17 2 -33 7 -36 11 -10 12 -85 49 -116 57 -16 3
-33 12 -37 18 -4 7 -11 12 -15 13 -13 1 -46 15 -75 30 -14 8 -36 14 -49 14
-12 0 -31 7 -41 17 -11 10 -18 12 -18 4 0 -6 -10 -3 -22 9 -12 11 -39 25 -60
31 -21 5 -38 14 -38 19 0 5 -6 7 -14 4 -8 -3 -34 4 -59 15 -25 12 -51 21 -56
21 -6 0 -10 3 -8 8 1 4 -2 8 -6 9 -5 1 -15 10 -24 20 -8 10 -11 12 -7 4 6 -11
1 -12 -22 -6 -16 4 -38 7 -49 7 -10 -1 -25 4 -32 9 -6 6 -26 13 -43 16 -17 2
-40 13 -51 24 -11 11 -24 17 -29 14 -6 -4 -10 -2 -10 3 0 5 -6 9 -12 10 -51 6
-87 18 -113 36 -16 11 -39 19 -52 18 -12 -2 -43 4 -70 13 -26 10 -53 18 -59
19 -7 1 -18 7 -25 13 -8 6 -30 13 -49 17 -58 9 -67 11 -81 23 -8 5 -36 13 -63
17 -27 3 -54 10 -60 15 -6 5 -19 7 -28 6 -9 -2 -29 8 -44 22 -18 17 -29 21
-34 13 -8 -13 -27 -10 -51 9 -22 18 -60 22 -76 9 -9 -7 -13 -6 -13 4 0 14 -57
41 -71 32 -5 -2 -25 4 -46 14 -21 11 -48 18 -60 16 -13 -2 -23 0 -23 6 0 5 -7
7 -15 3 -9 -3 -25 3 -35 12 -14 12 -20 14 -20 5 0 -10 -3 -10 -15 0 -8 7 -15
9 -15 5 0 -5 -8 -1 -17 7 -10 9 -27 14 -38 12 -10 -1 -25 2 -32 8 -7 6 -13 7
-13 3 0 -4 -6 -2 -13 4 -8 6 -16 9 -19 6 -3 -3 -18 1 -34 9 -19 10 -30 12 -35
5 -9 -16 -11 -16 -49 8 -19 11 -50 24 -68 28 -18 4 -29 11 -26 17 4 6 0 6 -13
-1 -14 -7 -23 -7 -32 2 -6 6 -27 10 -46 9 -19 -2 -35 2 -35 8 0 5 -18 10 -39
10 -23 0 -41 5 -43 13 -3 6 -16 13 -29 14 -58 6 -99 16 -99 24 0 6 -9 5 -20
-1 -16 -9 -20 -8 -20 6 0 13 -6 15 -31 10 -24 -4 -35 -1 -46 11 -8 10 -12 12
-8 6 8 -16 -7 -17 -23 -1 -9 9 -12 9 -13 -2 0 -8 -4 -5 -9 8 -10 23 -30 31
-30 11 0 -8 -4 -8 -12 -1 -7 6 -16 10 -21 11 -4 0 -24 5 -44 10 -20 6 -40 8
-45 5 -4 -3 -8 0 -8 7 0 6 -8 9 -20 6 -11 -3 -27 2 -36 10 -8 8 -25 13 -37 11
-13 -3 -29 1 -35 9 -7 7 -21 13 -32 13 -10 0 -31 5 -47 12 -15 6 -32 10 -36 9
-6 -1 -74 20 -172 53 -5 2 -14 4 -19 4 -5 0 -13 7 -18 16 -7 12 -14 13 -33 6
-16 -6 -25 -6 -25 0 0 5 -7 7 -15 4 -8 -4 -15 -1 -15 5 0 6 -15 14 -32 19 -18
5 -32 15 -30 21 1 7 -2 10 -8 6 -5 -3 -10 -2 -10 3 0 5 -11 8 -25 7 -14 -2
-27 1 -31 6 -3 5 -10 7 -15 4 -5 -4 -9 -1 -9 4 0 6 -11 11 -25 11 -14 0 -25 5
-25 11 0 6 -7 8 -16 5 -10 -4 -22 1 -31 11 -8 10 -11 12 -7 4 5 -9 3 -12 -4
-7 -7 4 -12 14 -12 22 0 8 -5 12 -11 9 -5 -4 -19 1 -31 12 -11 10 -22 17 -24
16 -13 -9 -55 -1 -68 13 -9 8 -16 12 -16 7 0 -4 -5 0 -11 9 -7 13 -17 16 -41
11 -26 -5 -30 -4 -25 10 4 11 1 17 -8 17 -8 0 -15 4 -15 8 0 4 -10 9 -22 9
-13 1 -24 7 -26 13 -2 5 -7 8 -12 5 -20 -13 -148 54 -132 69 4 5 -2 7 -13 6
-30 -3 -49 -1 -42 6 8 8 -34 54 -51 54 -9 0 -12 6 -8 16 3 8 2 13 -2 10 -12
-7 -87 40 -87 56 -1 7 -6 12 -13 11 -6 -2 -9 4 -6 12 4 10 -4 18 -22 25 -20 8
-25 13 -15 19 9 6 7 10 -9 14 -12 3 -19 10 -16 15 3 5 -6 22 -19 38 -23 26
-29 45 -28 81 1 7 -3 10 -8 7 -5 -3 -9 4 -9 15 0 12 5 21 10 21 6 0 10 5 10
11 0 5 -4 8 -9 5 -5 -3 -10 9 -10 27 -1 17 -2 41 -2 52 -1 11 1 30 4 43 3 12
2 22 -3 22 -4 0 -7 11 -6 25 0 14 4 25 9 25 4 0 5 25 3 55 -3 30 -1 55 3 55 4
0 8 7 8 15 0 8 -4 15 -9 15 -5 0 -7 4 -4 8 9 14 19 66 20 102 1 19 6 41 10 49
10 15 16 46 21 96 1 17 8 29 13 28 6 -2 9 4 6 12 -4 8 2 27 11 41 13 20 14 28
5 34 -9 5 -9 9 -1 11 10 4 14 14 28 79 3 14 12 32 19 41 8 9 11 19 7 22 -3 4
-1 7 6 7 8 0 11 8 8 20 -3 11 -1 20 4 20 5 0 9 8 9 18 1 20 24 54 33 46 3 -3
11 14 18 38 7 23 20 54 30 68 18 26 19 30 19 56 0 8 4 13 8 10 9 -6 48 54 44
68 -2 4 3 14 9 22 6 8 8 14 4 14 -5 0 2 9 15 20 13 11 27 20 32 20 5 0 7 4 3
9 -3 5 -1 12 5 16 5 3 10 14 10 23 0 9 13 25 28 36 15 10 29 26 29 35 2 21
109 181 117 174 3 -4 6 -1 6 4 0 6 18 34 40 62 22 28 40 58 40 67 0 10 2 15 5
12 7 -6 65 46 66 59 0 4 25 28 54 53 30 25 55 48 55 52 0 3 23 28 51 55 28 26
58 56 68 65 16 18 96 97 157 156 19 18 34 31 34 28 0 -2 25 20 55 50 30 30 63
54 75 54 11 0 20 4 20 9 0 11 202 173 323 260 48 34 87 66 87 69 0 4 17 16 38
27 20 11 53 31 72 45 19 15 42 30 50 34 8 4 24 12 35 19 11 7 43 25 70 42 28
16 52 32 55 35 10 12 142 93 177 109 11 5 24 15 28 21 6 10 190 103 205 105 3
0 59 24 125 54 66 29 134 59 150 67 17 7 56 24 89 39 32 14 61 24 64 21 2 -3
17 1 32 9 15 8 30 11 34 8 3 -4 6 -1 6 5 0 7 13 12 29 12 16 0 42 5 58 11 15
6 42 13 58 15 17 3 43 9 59 14 15 6 32 7 36 5 5 -3 11 -1 15 5 3 5 22 10 41
10 20 0 44 5 55 10 11 6 39 12 62 13 23 2 47 6 52 9 14 8 406 3 490 -7 39 -4
81 -15 95 -24 32 -20 122 -111 124 -125 1 -6 18 -28 39 -48 20 -21 37 -44 37
-52 0 -8 11 -23 24 -34 13 -10 29 -37 35 -59 6 -23 18 -44 26 -47 8 -3 15 -14
15 -25 0 -11 4 -21 10 -23 5 -1 11 -18 12 -37 1 -18 8 -36 15 -38 7 -3 10 -9
7 -14 -3 -5 1 -11 8 -14 14 -6 20 -27 22 -82 0 -18 5 -33 10 -33 4 0 6 -6 3
-14 -3 -8 0 -17 7 -19 21 -8 39 -139 31 -225 -4 -42 -7 -99 -6 -126 1 -28 -4
-53 -10 -57 -6 -3 -14 -27 -16 -53 -3 -25 -10 -46 -15 -46 -5 0 -8 -8 -7 -17
3 -38 -1 -64 -11 -58 -5 3 -10 -3 -10 -15 0 -11 -4 -28 -9 -38 -5 -9 -15 -30
-22 -47 -8 -16 -17 -32 -20 -35 -9 -7 -69 -138 -69 -150 0 -6 -5 -10 -11 -10
-5 0 -8 -4 -4 -9 3 -5 -4 -16 -15 -24 -11 -7 -18 -16 -15 -18 2 -3 -27 -45
-65 -94 -38 -50 -81 -110 -94 -135 -14 -25 -62 -84 -108 -131 -46 -47 -92 -99
-103 -114 -11 -16 -31 -41 -45 -56 -14 -15 -41 -47 -60 -70 -19 -23 -66 -73
-105 -112 -38 -39 -80 -86 -92 -106 -12 -20 -23 -33 -23 -30 0 3 -28 -22 -63
-55 -69 -68 -103 -96 -115 -96 -4 0 -36 -21 -71 -46 -34 -25 -65 -43 -69 -40
-3 4 -16 -4 -29 -16 -13 -12 -23 -19 -23 -15 0 3 -27 -7 -59 -23 -42 -21 -78
-31 -125 -34 -52 -3 -71 -8 -96 -30 -17 -14 -35 -26 -39 -26 -4 0 -8 -8 -9
-17 -1 -31 8 -63 19 -63 5 0 22 -11 37 -25 15 -14 33 -25 40 -25 7 0 11 -4 8
-8 -2 -4 12 -8 32 -8 20 0 51 -3 67 -8 17 -4 36 -8 43 -8 6 -1 12 -5 12 -10 0
-5 7 -2 16 6 18 18 36 12 28 -9 -5 -13 13 -21 96 -42 59 -16 205 -31 250 -27
59 5 104 11 108 14 1 1 5 3 10 4 36 7 109 31 116 37 6 5 20 9 33 9 13 0 23 4
23 10 0 5 3 9 8 8 4 -1 25 6 46 15 22 10 51 20 65 23 25 6 81 28 111 45 8 5
26 14 40 19 14 6 32 14 40 20 8 5 43 23 78 40 34 18 62 36 62 41 0 5 8 13 18
16 9 4 42 26 73 49 31 24 76 54 100 67 43 23 87 57 138 107 26 25 71 54 104
66 9 3 17 9 17 13 0 10 66 81 75 81 4 0 16 10 26 22 11 11 19 18 19 13 0 -4
13 8 29 28 15 20 30 34 33 32 3 -3 11 7 19 22 8 16 34 49 59 74 25 25 61 63
80 85 19 21 45 45 57 53 12 8 24 24 25 35 2 12 9 20 16 18 6 -1 12 5 12 13 0
8 7 15 16 15 8 0 12 5 9 10 -4 6 5 23 19 37 14 14 26 32 26 40 0 8 5 11 10 8
6 -3 10 1 10 9 0 9 4 16 8 16 5 0 15 12 22 28 8 15 26 41 41 57 31 34 89 139
89 162 0 8 5 11 12 7 7 -4 8 -3 4 5 -10 16 3 53 16 45 6 -4 8 -2 4 4 -3 6 -2
13 4 17 6 4 8 11 4 16 -7 12 15 79 26 79 9 0 23 39 20 59 -1 7 2 20 5 30 4 9
9 40 11 69 2 30 7 58 10 64 9 14 12 88 4 93 -4 3 -6 30 -5 62 1 32 -2 64 -8
70 -5 7 -7 24 -5 38 3 14 1 28 -4 31 -5 3 -3 13 4 22 7 9 8 13 2 9 -11 -6 -50
101 -47 131 0 6 -3 12 -8 12 -5 0 -8 3 -7 8 3 12 -40 98 -57 112 -8 7 -15 17
-15 22 0 6 -9 22 -20 38 -11 15 -16 31 -12 35 4 5 2 5 -4 2 -6 -3 -25 19 -43
49 -19 29 -37 54 -41 54 -4 0 -15 16 -26 35 -10 19 -22 35 -26 35 -5 0 -8 7
-8 15 0 8 -15 24 -32 35 -18 11 -26 20 -18 20 10 0 4 11 -17 29 -17 16 -29 32
-26 34 2 3 -5 8 -16 12 -11 3 -26 19 -33 35 -7 16 -22 31 -34 34 -18 5 -32 26
-32 52 -1 10 -36 33 -51 34 -7 0 -25 13 -40 29 -14 16 -42 37 -61 47 -19 11
-37 21 -40 25 -9 10 -105 65 -137 80 -18 7 -33 17 -33 21 0 5 -7 8 -16 8 -8 0
-25 5 -37 12 -12 7 -29 13 -37 14 -8 2 -16 8 -18 14 -2 5 -7 8 -12 5 -4 -3
-13 2 -20 10 -7 8 -21 15 -31 15 -11 0 -19 4 -19 10 0 5 -3 9 -7 8 -5 -1 -17
3 -28 9 -11 6 -23 12 -27 12 -4 1 -13 3 -20 6 -77 25 -249 77 -271 80 -15 3
-51 16 -80 29 -28 12 -68 29 -87 36 -19 7 -39 17 -44 22 -6 4 -20 8 -33 8 -13
0 -23 5 -23 10 0 6 -11 10 -25 10 -14 0 -33 4 -43 9 -18 9 -146 37 -217 46
-41 5 -80 13 -80 15 0 0 -74 2 -165 3 -140 2 -182 -1 -275 -20z m-2792 -2158
c-3 -9 -8 -14 -10 -11 -3 3 -2 9 2 15 9 16 15 13 8 -4z m-53 -39 c0 -2 -8 -10
-17 -17 -16 -13 -17 -12 -4 4 13 16 21 21 21 13z m-20 -50 c0 -3 -4 -8 -10
-11 -5 -3 -10 -1 -10 4 0 6 5 11 10 11 6 0 10 -2 10 -4z m-125 -166 c3 -6 -1
-7 -9 -4 -18 7 -21 14 -7 14 6 0 13 -4 16 -10z m-60 -68 c-3 -3 -11 0 -18 7
-9 10 -8 11 6 5 10 -3 15 -9 12 -12z m-157 -217 c-3 -3 -9 2 -12 12 -6 14 -5
15 5 6 7 -7 10 -15 7 -18z"/>
<path d="M16079 16916 c-2 -2 -51 -7 -109 -10 -131 -8 -242 -21 -345 -41 -44
-8 -105 -16 -135 -16 -30 -1 -62 -5 -71 -9 -8 -5 -56 -14 -105 -20 -117 -14
-189 -26 -364 -62 -80 -16 -181 -36 -225 -44 -44 -8 -94 -19 -111 -25 -18 -5
-71 -14 -120 -20 -48 -6 -97 -17 -109 -25 -12 -8 -55 -18 -96 -24 -41 -5 -130
-22 -199 -39 -69 -16 -138 -31 -155 -32 -16 -2 -34 -6 -40 -9 -5 -4 -25 -7
-44 -9 -19 -1 -39 -5 -45 -10 -6 -5 -44 -14 -83 -21 -40 -7 -73 -16 -73 -20 0
-4 -12 -10 -27 -13 -89 -18 -127 -28 -137 -36 -7 -6 -57 -21 -111 -35 -261
-65 -333 -85 -370 -102 -22 -9 -51 -19 -65 -21 -54 -7 -236 -55 -260 -68 -14
-7 -64 -21 -110 -30 -47 -9 -93 -21 -104 -26 -10 -6 -28 -12 -40 -15 -33 -6
-129 -35 -146 -44 -9 -4 -31 -11 -50 -15 -19 -4 -40 -11 -46 -17 -7 -5 -16 -8
-20 -6 -11 3 -76 -18 -119 -37 -67 -30 -134 -54 -210 -75 -44 -12 -100 -33
-125 -46 -25 -13 -50 -24 -56 -24 -14 0 -149 -61 -214 -97 -25 -13 -63 -33
-85 -44 -75 -37 -100 -56 -101 -75 -1 -10 -2 -27 -3 -36 -1 -11 -9 -18 -21
-18 -17 0 -19 -4 -14 -27 4 -16 10 -30 15 -33 4 -3 10 -22 14 -43 4 -20 10
-37 14 -37 3 0 12 -13 19 -30 19 -41 82 -99 132 -120 16 -7 27 -16 24 -21 -3
-5 1 -9 9 -9 8 0 17 -7 21 -15 8 -22 33 -18 39 5 4 15 14 20 41 20 l36 0 -20
-20 c-30 -30 -26 -72 7 -87 15 -7 37 -13 50 -13 13 0 23 -4 23 -10 0 -5 11
-12 25 -16 l24 -6 -24 -32 c-14 -18 -25 -40 -25 -48 0 -8 -3 -18 -7 -22 -5 -4
-8 -11 -8 -14 -1 -4 -6 -17 -13 -28 -6 -12 -8 -24 -5 -28 3 -3 -2 -15 -12 -26
-10 -11 -14 -20 -10 -20 5 0 4 -5 -3 -12 -7 -7 -12 -20 -12 -30 0 -10 -4 -18
-10 -18 -5 0 -10 -11 -10 -24 0 -13 -8 -34 -18 -47 -27 -36 -43 -72 -46 -102
-2 -15 -8 -33 -15 -41 -6 -8 -11 -18 -10 -22 1 -5 0 -16 -3 -24 -3 -8 -12 -35
-19 -59 -7 -24 -18 -45 -25 -48 -7 -3 -10 -11 -7 -20 3 -8 1 -24 -5 -36 -6
-12 -21 -56 -33 -97 -13 -41 -27 -76 -31 -78 -5 -2 -8 -11 -8 -20 0 -9 -7 -30
-16 -47 -8 -16 -13 -38 -10 -48 2 -10 -4 -27 -14 -37 -10 -10 -21 -36 -25 -59
-4 -23 -11 -41 -16 -41 -5 0 -9 -20 -9 -45 0 -31 -5 -47 -15 -51 -8 -4 -15
-17 -15 -30 0 -13 -5 -24 -11 -24 -6 0 -9 -6 -6 -14 5 -14 -22 -101 -43 -138
-6 -10 -10 -27 -10 -38 0 -11 -4 -20 -9 -20 -8 0 -18 -43 -38 -155 -3 -16 -10
-33 -15 -36 -5 -3 -11 -32 -14 -65 -4 -36 -12 -63 -22 -70 -9 -6 -13 -18 -9
-28 4 -9 2 -16 -4 -16 -6 0 -8 -7 -5 -15 3 -9 2 -23 -3 -33 -23 -42 -27 -58
-36 -147 -3 -33 -12 -88 -19 -122 -8 -43 -9 -66 -2 -73 7 -7 5 -10 -7 -10 -11
0 -18 -11 -21 -32 -2 -18 -12 -76 -21 -128 -9 -52 -18 -108 -20 -125 -2 -16
-6 -43 -9 -60 -4 -16 -8 -52 -11 -80 -2 -27 -7 -70 -11 -95 -3 -25 -8 -106
-10 -180 -1 -75 -7 -155 -12 -178 -6 -23 -7 -42 -3 -42 3 0 5 -37 4 -82 -1
-51 3 -88 10 -97 6 -7 13 -28 14 -45 2 -17 4 -42 6 -56 1 -14 8 -31 15 -38 6
-7 12 -29 12 -48 0 -19 5 -34 10 -34 6 0 10 -7 10 -15 0 -8 5 -15 10 -15 6 0
10 -6 10 -14 0 -8 7 -22 16 -30 8 -9 12 -16 8 -16 -3 0 -1 -7 6 -15 6 -8 13
-26 15 -41 1 -15 10 -33 19 -39 9 -7 16 -16 16 -21 0 -5 21 -31 45 -58 25 -27
45 -53 45 -58 0 -5 4 -7 9 -4 5 3 12 -5 15 -19 4 -16 13 -25 26 -25 11 0 20
-3 20 -8 0 -18 60 -72 74 -66 9 3 20 -3 28 -15 7 -12 18 -21 24 -21 6 0 19 -9
30 -21 13 -15 26 -19 46 -15 20 4 28 2 28 -9 0 -8 6 -12 14 -9 8 3 17 1 21 -5
3 -6 17 -11 31 -11 13 0 24 -5 24 -12 0 -6 3 -8 7 -5 3 4 13 1 21 -5 24 -20
85 -38 109 -32 13 4 23 2 23 -5 0 -6 6 -8 14 -5 8 3 25 -2 39 -10 21 -15 26
-15 37 -2 10 14 15 13 36 0 14 -9 34 -14 47 -10 12 3 35 -1 51 -9 16 -8 46
-15 68 -15 36 0 38 -1 24 -16 -26 -25 -18 -40 8 -15 17 16 26 19 31 11 4 -7
19 -10 35 -6 15 3 31 2 34 -1 11 -11 50 -11 65 0 10 9 16 7 26 -7 11 -15 16
-15 34 -4 18 11 23 11 32 -2 8 -11 12 -12 16 -2 2 6 19 12 36 11 28 0 29 -2
12 -10 -15 -7 -12 -8 15 -4 19 3 71 8 115 10 145 7 216 14 228 22 7 5 26 9 42
10 67 5 161 19 172 26 6 4 14 3 18 -2 8 -14 46 -9 41 5 -3 7 2 15 10 18 25 9
36 7 28 -6 -5 -8 -2 -9 10 -5 10 4 22 7 27 7 6 0 7 5 4 10 -6 9 7 12 63 13 12
1 22 4 22 8 0 4 9 6 20 4 12 -2 20 2 20 9 0 8 16 13 46 15 26 0 78 12 118 26
39 13 89 27 111 31 22 3 46 11 52 16 7 6 19 8 28 5 8 -4 20 0 28 7 7 7 26 16
42 19 59 10 78 17 94 31 9 8 37 17 64 21 30 5 47 12 47 21 0 8 9 14 19 14 16
0 39 7 81 26 3 1 15 5 28 9 12 4 22 10 22 14 0 3 15 12 33 19 17 7 40 18 49
23 10 5 22 9 27 9 6 0 27 11 47 25 20 14 45 25 55 25 11 0 27 9 36 20 10 11
23 20 30 20 7 0 13 4 13 9 0 5 11 12 25 15 14 4 25 11 25 16 0 6 7 10 15 10 8
0 27 12 43 28 40 37 66 56 82 60 8 2 23 13 34 25 12 12 28 21 36 19 9 -1 26
11 39 28 15 21 28 29 39 25 9 -3 13 -3 9 1 -8 8 21 44 34 44 5 0 22 13 37 30
16 16 31 28 34 25 2 -3 20 11 38 30 19 19 41 35 50 35 9 0 33 16 54 35 21 19
42 35 47 35 5 0 9 4 9 9 0 11 65 77 88 90 18 10 119 102 223 204 38 37 73 67
77 67 4 0 16 14 27 30 11 16 26 30 33 30 6 0 12 3 12 8 0 6 76 96 97 114 46
40 62 58 82 90 12 20 40 52 61 70 22 18 40 38 40 44 0 7 9 15 19 19 11 3 22
19 26 35 4 17 10 30 15 30 5 0 12 10 16 23 6 21 72 127 85 137 31 25 2 149
-47 198 -13 14 -24 29 -24 33 0 17 -60 9 -77 -10 -13 -16 -20 -18 -37 -9 -15
8 -21 8 -24 -1 -2 -6 -13 -11 -25 -10 -12 0 -16 3 -9 6 21 8 13 23 -14 23 -14
0 -37 -9 -50 -19 -18 -14 -34 -18 -59 -14 -34 5 -44 -4 -26 -22 15 -15 -10
-41 -46 -48 -18 -4 -33 -3 -33 1 0 4 -9 8 -21 9 -13 1 -26 -8 -37 -26 -15 -27
-19 -28 -67 -24 -98 10 -191 -4 -226 -34 -8 -7 -23 -13 -32 -13 -9 0 -18 -4
-21 -9 -4 -5 -25 -12 -49 -16 -23 -4 -53 -17 -67 -29 -28 -25 -125 -76 -144
-76 -7 0 -23 -11 -36 -25 -13 -14 -31 -25 -40 -25 -9 0 -27 -11 -40 -25 -13
-14 -27 -25 -32 -25 -5 0 -36 -27 -69 -60 -33 -33 -64 -59 -67 -58 -16 5 -84
-37 -112 -68 -16 -19 -32 -34 -36 -34 -3 0 -15 -11 -26 -25 -11 -14 -26 -25
-34 -25 -8 0 -34 -21 -57 -47 -66 -73 -88 -92 -102 -87 -7 3 -29 -14 -50 -39
-21 -25 -49 -51 -64 -58 -43 -22 -89 -60 -172 -141 -43 -43 -84 -78 -92 -78
-8 0 -22 -9 -32 -20 -10 -11 -22 -20 -28 -20 -5 0 -18 -11 -28 -25 -12 -15
-26 -22 -35 -18 -10 4 -34 -12 -67 -44 -30 -29 -82 -64 -122 -83 -38 -18 -87
-44 -108 -57 -21 -13 -41 -21 -46 -19 -4 3 -23 -10 -41 -29 -18 -19 -37 -32
-41 -29 -4 2 -10 0 -14 -6 -4 -6 -10 -8 -15 -5 -4 3 -13 -2 -20 -10 -7 -8 -23
-15 -36 -15 -13 0 -24 -4 -24 -10 0 -5 -6 -7 -14 -4 -8 3 -19 -3 -26 -15 -6
-11 -14 -20 -18 -19 -15 3 -62 -15 -72 -27 -8 -10 -37 -14 -96 -14 -46 0 -88
-2 -92 -5 -12 -7 -92 15 -92 25 0 5 -11 9 -25 9 -15 0 -40 7 -58 16 -21 12
-32 13 -35 5 -5 -14 -32 -15 -32 -1 0 6 7 13 15 16 25 10 4 26 -26 20 -16 -3
-30 -1 -30 4 -1 6 -2 15 -3 21 0 6 -12 17 -26 24 -14 8 -22 14 -18 15 15 0
-36 50 -51 50 -13 0 -13 2 -2 9 11 7 10 10 -4 18 -9 6 -18 22 -18 36 -1 15 -8
29 -14 32 -7 2 -13 10 -13 16 0 7 -6 20 -14 28 -8 9 -17 30 -20 46 -3 16 -10
31 -15 33 -5 2 -7 12 -4 23 3 10 0 26 -8 35 -7 8 -14 42 -16 75 -1 34 -6 66
-10 72 -8 13 -16 117 -15 179 1 20 -3 40 -8 43 -6 4 -8 11 -4 16 3 5 5 38 4
72 -3 116 -2 142 5 160 4 9 3 17 -3 17 -6 0 -5 19 2 53 6 28 11 89 11 134 0
46 3 83 8 83 4 0 5 11 1 25 -4 16 0 34 10 50 14 22 18 49 17 124 -1 13 3 29 9
35 5 7 9 21 9 31 -1 40 12 132 27 190 8 33 16 67 18 75 7 42 20 60 44 66 15 4
32 9 37 13 6 3 17 6 25 8 8 1 16 6 18 11 2 6 12 8 23 5 10 -3 25 0 32 6 8 6
17 8 21 4 3 -4 12 1 19 10 6 8 26 18 42 20 37 6 115 39 115 49 0 4 6 5 14 2 8
-3 17 -1 20 5 4 6 13 8 20 5 7 -3 19 2 26 11 7 8 20 15 30 15 10 0 23 7 30 15
7 8 19 15 26 15 8 0 14 4 14 10 0 5 7 7 15 4 8 -4 15 -1 15 5 0 6 7 8 15 5 8
-4 15 -1 15 5 0 6 8 11 18 11 10 0 28 7 40 16 12 8 22 12 22 8 0 -3 7 -1 15 6
8 7 15 9 15 5 0 -4 7 -2 15 5 8 7 15 9 15 5 0 -5 8 -1 18 8 10 10 21 14 25 11
3 -3 21 4 39 17 18 13 35 23 38 21 9 -4 100 38 100 47 0 4 6 8 13 9 41 4 109
26 114 37 2 8 19 17 36 21 18 3 38 11 45 16 6 6 12 7 12 4 0 -4 10 0 22 8 12
9 29 16 38 16 8 0 32 11 51 24 20 14 48 26 62 28 13 2 31 9 39 16 8 6 18 9 22
5 4 -4 10 -3 14 3 4 5 30 18 57 28 28 10 57 25 66 33 9 8 29 15 44 17 14 2 44
19 66 38 33 30 39 41 39 75 0 74 -59 94 -162 54 -16 -6 -28 -8 -28 -5 0 4 -7
1 -15 -6 -8 -7 -15 -9 -15 -5 0 4 -7 2 -15 -5 -8 -6 -19 -9 -25 -5 -6 3 4 21
25 42 26 27 32 39 25 52 -7 14 -21 17 -72 14 -35 -1 -90 -9 -123 -18 -33 -8
-73 -17 -90 -20 -16 -3 -39 -9 -50 -12 -11 -4 -24 -7 -30 -8 -5 -1 -17 -4 -25
-7 -8 -3 -58 -16 -110 -28 -52 -12 -113 -27 -135 -32 -22 -6 -47 -12 -55 -13
-8 -1 -42 -10 -75 -19 -33 -10 -96 -28 -140 -41 -44 -13 -111 -33 -149 -44
-38 -12 -75 -21 -83 -21 -7 0 -41 -11 -75 -24 -79 -30 -162 -55 -167 -50 -2 2
1 9 6 16 10 12 24 70 28 110 1 10 7 23 12 30 6 7 19 38 29 68 10 30 23 58 29
62 6 5 5 8 -3 8 -9 0 -9 8 3 36 8 20 15 44 15 53 0 9 9 34 20 56 11 21 22 55
26 74 3 20 10 45 15 56 5 11 11 29 13 40 4 22 40 118 56 150 6 11 13 29 15 40
3 11 12 45 21 75 8 30 17 60 18 65 4 15 17 48 27 70 5 11 13 38 18 60 5 22 16
66 25 99 8 32 13 63 10 67 -3 5 -1 9 3 9 5 0 14 20 21 45 9 34 17 45 32 45 11
0 20 5 20 10 0 6 11 10 25 10 14 0 25 5 25 10 0 6 12 10 28 10 15 0 41 9 57
20 17 11 37 20 46 20 9 0 19 6 22 13 2 7 17 13 31 15 15 1 46 11 69 21 24 11
55 23 70 26 15 4 24 11 21 16 -3 5 8 9 23 9 16 0 46 9 68 20 22 11 44 20 49
20 5 0 17 6 25 14 9 8 36 17 60 21 25 4 54 13 65 21 11 8 31 14 43 14 13 0 23
4 23 9 0 10 31 23 68 27 13 1 29 8 37 14 7 6 47 20 87 30 70 17 146 44 215 75
17 8 42 15 56 15 14 0 29 5 32 10 3 6 17 10 29 10 13 0 29 7 36 15 7 9 19 14
26 11 7 -3 16 -1 19 4 4 6 24 10 46 10 23 0 39 5 39 12 0 6 3 8 6 5 4 -4 19 0
33 8 25 14 76 29 209 62 34 8 62 19 62 24 0 5 10 9 23 9 13 0 27 3 31 8 4 4
11 7 14 8 4 0 19 6 34 12 15 6 35 9 43 6 8 -4 15 -2 15 3 0 6 42 20 93 32 50
12 100 26 110 32 30 16 100 37 149 44 26 3 50 10 53 16 4 5 19 9 35 9 15 0 30
3 32 8 4 9 138 45 263 71 80 17 172 42 215 59 8 3 23 6 32 7 32 4 113 28 133
41 11 7 43 15 70 19 28 3 77 15 110 25 33 10 85 23 115 29 50 10 221 47 245
54 17 5 155 35 265 58 160 32 238 57 244 77 21 68 12 118 -18 106 -8 -3 -16 2
-19 10 -15 39 -96 56 -189 40 l-27 -4 15 36 c8 20 14 38 12 40 -32 32 -144 81
-188 83 -169 6 -358 10 -361 7z m-2439 -2690 c0 -7 -40 -14 -44 -7 -3 4 6 8
20 9 13 1 24 0 24 -2z"/>
<path d="M16274 16409 c-3 -6 -2 -15 4 -21 13 -13 32 -2 32 18 0 16 -26 19
-36 3z"/>
<path d="M16100 16345 c0 -8 5 -15 10 -15 6 0 10 7 10 15 0 8 -4 15 -10 15 -5
0 -10 -7 -10 -15z"/>
<path d="M11465 15110 c-10 -17 12 -37 25 -24 8 8 6 15 -4 23 -10 9 -16 9 -21
1z"/>
<path d="M11576 15063 c-11 -11 -6 -23 9 -23 8 0 15 4 15 9 0 13 -16 22 -24
14z"/>
<path d="M11500 14980 c0 -5 5 -10 11 -10 5 0 7 5 4 10 -3 6 -8 10 -11 10 -2
0 -4 -4 -4 -10z"/>
<path d="M7362 13871 c2 -7 7 -12 11 -12 12 1 9 15 -3 20 -7 2 -11 -2 -8 -8z"/>
<path d="M7215 13860 c3 -5 8 -10 11 -10 2 0 4 5 4 10 0 6 -5 10 -11 10 -5 0
-7 -4 -4 -10z"/>
<path d="M7292 13713 c5 -25 28 -28 28 -4 0 12 -6 21 -16 21 -9 0 -14 -7 -12
-17z"/>
<path d="M7122 13489 c2 -7 10 -15 17 -17 8 -3 12 1 9 9 -2 7 -10 15 -17 17
-8 3 -12 -1 -9 -9z"/>
<path d="M7120 13360 c0 -5 5 -10 10 -10 6 0 10 5 10 10 0 6 -4 10 -10 10 -5
0 -10 -4 -10 -10z"/>
<path d="M15310 13005 c-13 -16 -3 -20 24 -9 9 3 13 10 10 15 -8 13 -20 11
-34 -6z"/>
<path d="M11784 10885 c10 -8 24 -11 29 -8 6 4 2 10 -9 14 -31 12 -40 9 -20
-6z"/>
<path d="M11855 10880 c3 -5 8 -10 11 -10 2 0 4 5 4 10 0 6 -5 10 -11 10 -5 0
-7 -4 -4 -10z"/>
<path d="M11895 10870 c-3 -5 -2 -10 4 -10 5 0 13 5 16 10 3 6 2 10 -4 10 -5
0 -13 -4 -16 -10z"/>
<path d="M9995 8910 c3 -5 8 -10 11 -10 2 0 4 5 4 10 0 6 -5 10 -11 10 -5 0
-7 -4 -4 -10z"/>
</g>
</svg>
